<svg id="visual" viewBox="0 0 900 600" width="900" height="600" xmlns="http://www.w3.org/2000/svg" xmlns:xlink="http://www.w3.org/1999/xlink" version="1.1"><rect x="0" y="0" width="900" height="600" fill="#001220"></rect><path d="M0 371L21.5 368.3C43 365.7 86 360.3 128.8 372.7C171.7 385 214.3 415 257.2 419.5C300 424 343 403 385.8 394.2C428.7 385.3 471.3 388.7 514.2 398.5C557 408.3 600 424.7 642.8 418.5C685.7 412.3 728.3 383.7 771.2 373.3C814 363 857 371 878.5 375L900 379L900 601L878.5 601C857 601 814 601 771.2 601C728.3 601 685.7 601 642.8 601C600 601 557 601 514.2 601C471.3 601 428.7 601 385.8 601C343 601 300 601 257.2 601C214.3 601 171.7 601 128.8 601C86 601 43 601 21.5 601L0 601Z" fill="#8cfa69"></path><path d="M0 438L21.5 435.7C43 433.3 86 428.7 128.8 425.3C171.7 422 214.3 420 257.2 419.7C300 419.3 343 420.7 385.8 428.3C428.7 436 471.3 450 514.2 458.7C557 467.3 600 470.7 642.8 470.8C685.7 471 728.3 468 771.2 461.3C814 454.7 857 444.3 878.5 439.2L900 434L900 601L878.5 601C857 601 814 601 771.2 601C728.3 601 685.7 601 642.8 601C600 601 557 601 514.2 601C471.3 601 428.7 601 385.8 601C343 601 300 601 257.2 601C214.3 601 171.7 601 128.8 601C86 601 43 601 21.5 601L0 601Z" fill="#70db51"></path><path d="M0 482L21.5 483C43 484 86 486 128.8 486.7C171.7 487.3 214.3 486.7 257.2 490.5C300 494.3 343 502.7 385.8 504.7C428.7 506.7 471.3 502.3 514.2 500.2C557 498 600 498 642.8 496.7C685.7 495.3 728.3 492.7 771.2 490.5C814 488.3 857 486.7 878.5 485.8L900 485L900 601L878.5 601C857 601 814 601 771.2 601C728.3 601 685.7 601 642.8 601C600 601 557 601 514.2 601C471.3 601 428.7 601 385.8 601C343 601 300 601 257.2 601C214.3 601 171.7 601 128.8 601C86 601 43 601 21.5 601L0 601Z" fill="#53bc3a"></path><path d="M0 529L21.5 523.5C43 518 86 507 128.8 501.2C171.7 495.3 214.3 494.7 257.2 498.2C300 501.7 343 509.3 385.8 514.3C428.7 519.3 471.3 521.7 514.2 522.5C557 523.3 600 522.7 642.8 519.3C685.7 516 728.3 510 771.2 508.5C814 507 857 510 878.5 511.5L900 513L900 601L878.5 601C857 601 814 601 771.2 601C728.3 601 685.7 601 642.8 601C600 601 557 601 514.2 601C471.3 601 428.7 601 385.8 601C343 601 300 601 257.2 601C214.3 601 171.7 601 128.8 601C86 601 43 601 21.5 601L0 601Z" fill="#359e22"></path><path d="M0 528L21.5 531.2C43 534.3 86 540.7 128.8 541.3C171.7 542 214.3 537 257.2 536C300 535 343 538 385.8 539.2C428.7 540.3 471.3 539.7 514.2 541.8C557 544 600 549 642.8 550.3C685.7 551.7 728.3 549.3 771.2 549.5C814 549.7 857 552.3 878.5 553.7L900 555L900 601L878.5 601C857 601 814 601 771.2 601C728.3 601 685.7 601 642.8 601C600 601 557 601 514.2 601C471.3 601 428.7 601 385.8 601C343 601 300 601 257.2 601C214.3 601 171.7 601 128.8 601C86 601 43 601 21.5 601L0 601Z" fill="#0e8103"></path></svg>