<svg width="900" height="276" viewBox="0 0 900 276" fill="none" xmlns="http://www.w3.org/2000/svg">
<g clip-path="url(#clip0_27_180)">
<path d="M900 158V59L878.5 61.7C877.741 61.7918 876.954 61.8871 876.142 61.9856C853.963 64.6748 812.488 69.7035 771.2 69.8C751.796 69.8904 732.454 68.9171 713.118 67.9441C689.703 66.7658 666.296 65.588 642.8 66.3C631.892 66.6568 620.971 67.4163 610.043 68.1763C578.095 70.3982 546.092 72.6239 514.2 64.8C490.33 58.9575 466.552 47.5113 442.764 36.0599C423.8 26.931 404.829 17.7988 385.8 11.5C343 -2.70005 300 -2.30002 257.2 6.29995C241.049 9.57543 224.94 14.0274 208.841 18.4765C182.18 25.8446 155.548 33.2047 128.8 35.2C86 38.3 43 27.7 21.5 22.3L0 17V158H900Z" fill="#002972"/>
<path d="M0 110L21.5 104C43 98 86 86 128.8 93.7C171.7 101.3 214.3 128.7 257.2 142C300 155.3 343 154.7 385.8 142.5C428.7 130.3 471.3 106.7 514.2 102.2C557 97.7 600 112.3 642.8 112.2C685.7 112 728.3 97 771.2 90C814 83 857 84 878.5 84.5L900 85V276H878.5C857 276 814 276 771.2 276C728.3 276 685.7 276 642.8 276C600 276 557 276 514.2 276C471.3 276 428.7 276 385.8 276C343 276 300 276 257.2 276C214.3 276 171.7 276 128.8 276C86 276 43 276 21.5 276H0V110Z" fill="#00438A"/>
<path d="M0 115L21.5 116.8C43 118.7 86 122.3 128.8 128.2C171.7 134 214.3 142 257.2 141.8C300 141.7 343 133.3 385.8 137.8C428.7 142.3 471.3 159.7 514.2 161.5C557 163.3 600 149.7 642.8 143.8C685.7 138 728.3 140 771.2 145.5C814 151 857 160 878.5 164.5L900 169V276H878.5C857 276 814 276 771.2 276C728.3 276 685.7 276 642.8 276C600 276 557 276 514.2 276C471.3 276 428.7 276 385.8 276C343 276 300 276 257.2 276C214.3 276 171.7 276 128.8 276C86 276 43 276 21.5 276H0V115Z" fill="#005EA1"/>
<path d="M0 194L21.5 193.5C43 193 86 192 128.8 194.2C171.7 196.3 214.3 201.7 257.2 197.2C300 192.7 343 178.3 385.8 171C428.7 163.7 471.3 163.3 514.2 163.8C557 164.3 600 165.7 642.8 168.2C685.7 170.7 728.3 174.3 771.2 175.5C814 176.7 857 175.3 878.5 174.7L900 174V276H878.5C857 276 814 276 771.2 276C728.3 276 685.7 276 642.8 276C600 276 557 276 514.2 276C471.3 276 428.7 276 385.8 276C343 276 300 276 257.2 276C214.3 276 171.7 276 128.8 276C86 276 43 276 21.5 276H0V194Z" fill="#0079B6"/>
<path d="M0 205L21.5 207.3C43 209.7 86 214.3 128.8 220.8C171.7 227.3 214.3 235.7 257.2 236.3C300 237 343 230 385.8 227.3C428.7 224.7 471.3 226.3 514.2 224C557 221.7 600 215.3 642.8 218.3C685.7 221.3 728.3 233.7 771.2 234.3C814 235 857 224 878.5 218.5L900 213V276H878.5C857 276 814 276 771.2 276C728.3 276 685.7 276 642.8 276C600 276 557 276 514.2 276C471.3 276 428.7 276 385.8 276C343 276 300 276 257.2 276C214.3 276 171.7 276 128.8 276C86 276 43 276 21.5 276H0V205Z" fill="#0094C7"/>
</g>
<defs>
<clipPath id="clip0_27_180">
<rect width="900" height="276" fill="white" transform="matrix(1 0 0 -1 0 276)"/>
</clipPath>
</defs>
</svg>
