<svg width="900" height="231" viewBox="0 0 900 231" fill="none" xmlns="http://www.w3.org/2000/svg">
<g clip-path="url(#clip0_30_192)">
<path d="M0 220L21.5 222.7C43 225.3 86 230.7 128.8 230.8C171.7 231 214.3 226 257.2 227.3C300 228.7 343 236.3 385.8 225.8C428.7 215.3 471.3 186.7 514.2 172.5C557 158.3 600 158.7 642.8 167.3C685.7 176 728.3 193 771.2 196.2C814 199.3 857 188.7 878.5 183.3L900 178V0H878.5C857 0 814 0 771.2 0C728.3 0 685.7 0 642.8 0C600 0 557 0 514.2 0C471.3 0 428.7 0 385.8 0C343 0 300 0 257.2 0C214.3 0 171.7 0 128.8 0C86 0 43 0 21.5 0H0V220Z" fill="#005A1E"/>
<path d="M0 166L21.5 172C43 178 86 190 128.8 182.3C171.7 174.7 214.3 147.3 257.2 134C300 120.7 343 121.3 385.8 133.5C428.7 145.7 471.3 169.3 514.2 173.8C557 178.3 600 163.7 642.8 163.8C685.7 164 728.3 179 771.2 186C814 193 857 192 878.5 191.5L900 191V0H878.5C857 0 814 0 771.2 0C728.3 0 685.7 0 642.8 0C600 0 557 0 514.2 0C471.3 0 428.7 0 385.8 0C343 0 300 0 257.2 0C214.3 0 171.7 0 128.8 0C86 0 43 0 21.5 0H0V166Z" fill="#00802C"/>
<path d="M0 161L21.5 159.2C43 157.3 86 153.7 128.8 147.8C171.7 142 214.3 134 257.2 134.2C300 134.3 343 142.7 385.8 138.2C428.7 133.7 471.3 116.3 514.2 114.5C557 112.7 600 126.3 642.8 132.2C685.7 138 728.3 136 771.2 130.5C814 125 857 116 878.5 111.5L900 107V0H878.5C857 0 814 0 771.2 0C728.3 0 685.7 0 642.8 0C600 0 557 0 514.2 0C471.3 0 428.7 0 385.8 0C343 0 300 0 257.2 0C214.3 0 171.7 0 128.8 0C86 0 43 0 21.5 0H0V161Z" fill="#00A93A"/>
<path d="M0 82L21.5 82.5C43 83 86 84 128.8 81.8C171.7 79.7 214.3 74.3 257.2 78.8C300 83.3 343 97.7 385.8 105C428.7 112.3 471.3 112.7 514.2 112.2C557 111.7 600 110.3 642.8 107.8C685.7 105.3 728.3 101.7 771.2 100.5C814 99.3 857 100.7 878.5 101.3L900 102V0H878.5C857 0 814 0 771.2 0C728.3 0 685.7 0 642.8 0C600 0 557 0 514.2 0C471.3 0 428.7 0 385.8 0C343 0 300 0 257.2 0C214.3 0 171.7 0 128.8 0C86 0 43 0 21.5 0H0V82Z" fill="#00D348"/>
<path d="M0 71L21.5 68.7C43 66.3 86 61.7 128.8 55.2C171.7 48.7 214.3 40.3 257.2 39.7C300 39 343 46 385.8 48.7C428.7 51.3 471.3 49.7 514.2 52C557 54.3 600 60.7 642.8 57.7C685.7 54.7 728.3 42.3 771.2 41.7C814 41 857 52 878.5 57.5L900 63V0H878.5C857 0 814 0 771.2 0C728.3 0 685.7 0 642.8 0C600 0 557 0 514.2 0C471.3 0 428.7 0 385.8 0C343 0 300 0 257.2 0C214.3 0 171.7 0 128.8 0C86 0 43 0 21.5 0H0V71Z" fill="#00FF56"/>
</g>
<defs>
<clipPath id="clip0_30_192">
<rect width="900" height="231" fill="white"/>
</clipPath>
</defs>
</svg>
