<svg width="900" height="236" viewBox="0 0 900 236" fill="none" xmlns="http://www.w3.org/2000/svg">
<g clip-path="url(#clip0_27_146)">
<path d="M0 176L21.5 179.3C43 182.7 86 189.3 128.8 201.3C171.7 213.3 214.3 230.7 257.2 235.2C300 239.7 343 231.3 385.8 217.8C428.7 204.3 471.3 185.7 514.2 188.2C557 190.7 600 214.3 642.8 217C685.7 219.7 728.3 201.3 771.2 197.7C814 194 857 205 878.5 210.5L900 216V0H878.5C857 0 814 0 771.2 0C728.3 0 685.7 0 642.8 0C600 0 557 0 514.2 0C471.3 0 428.7 0 385.8 0C343 0 300 0 257.2 0C214.3 0 171.7 0 128.8 0C86 0 43 0 21.5 0H0V176Z" fill="#7C002D"/>
<path d="M0 159L21.5 155.5C43 152 86 145 128.8 146.8C171.7 148.7 214.3 159.3 257.2 169.2C300 179 343 188 385.8 190.8C428.7 193.7 471.3 190.3 514.2 178C557 165.7 600 144.3 642.8 135.7C685.7 127 728.3 131 771.2 132.8C814 134.7 857 134.3 878.5 134.2L900 134V0H878.5C857 0 814 0 771.2 0C728.3 0 685.7 0 642.8 0C600 0 557 0 514.2 0C471.3 0 428.7 0 385.8 0C343 0 300 0 257.2 0C214.3 0 171.7 0 128.8 0C86 0 43 0 21.5 0H0V159Z" fill="#9F002E"/>
<path d="M0 153L21.5 154.2C43 155.3 86 157.7 128.8 156.8C171.7 156 214.3 152 257.2 142.7C300 133.3 343 118.7 385.8 109.8C428.7 101 471.3 98 514.2 96.7C557 95.3 600 95.7 642.8 97.2C685.7 98.7 728.3 101.3 771.2 101.2C814 101 857 98 878.5 96.5L900 95V0H878.5C857 0 814 0 771.2 0C728.3 0 685.7 0 642.8 0C600 0 557 0 514.2 0C471.3 0 428.7 0 385.8 0C343 0 300 0 257.2 0C214.3 0 171.7 0 128.8 0C86 0 43 0 21.5 0H0V153Z" fill="#C10029"/>
<path d="M0 90L21.5 94.3C43 98.7 86 107.3 128.8 103.7C171.7 100 214.3 84 257.2 78.5C300 73 343 78 385.8 85.2C428.7 92.3 471.3 101.7 514.2 104.8C557 108 600 105 642.8 99.5C685.7 94 728.3 86 771.2 80.8C814 75.7 857 73.3 878.5 72.2L900 71V0H878.5C857 0 814 0 771.2 0C728.3 0 685.7 0 642.8 0C600 0 557 0 514.2 0C471.3 0 428.7 0 385.8 0C343 0 300 0 257.2 0C214.3 0 171.7 0 128.8 0C86 0 43 0 21.5 0H0V90Z" fill="#E1001E"/>
<path d="M0 35L21.5 38.2C43 41.3 86 47.7 128.8 51.3C171.7 55 214.3 56 257.2 53.8C300 51.7 343 46.3 385.8 45.5C428.7 44.7 471.3 48.3 514.2 50.5C557 52.7 600 53.3 642.8 54.7C685.7 56 728.3 58 771.2 58.3C814 58.7 857 57.3 878.5 56.7L900 56V0H878.5C857 0 814 0 771.2 0C728.3 0 685.7 0 642.8 0C600 0 557 0 514.2 0C471.3 0 428.7 0 385.8 0C343 0 300 0 257.2 0C214.3 0 171.7 0 128.8 0C86 0 43 0 21.5 0H0V35Z" fill="#FF0002"/>
</g>
<defs>
<clipPath id="clip0_27_146">
<rect width="900" height="236" fill="white"/>
</clipPath>
</defs>
</svg>