<svg width="900" height="231" viewBox="0 0 900 231" fill="none" xmlns="http://www.w3.org/2000/svg">
<g clip-path="url(#clip0_27_174)">
<path d="M900 220L878.5 222.7C857 225.3 814 230.7 771.2 230.8C728.3 231 685.7 226 642.8 227.3C600 228.7 557 236.3 514.2 225.8C471.3 215.3 428.7 186.7 385.8 172.5C343 158.3 300 158.7 257.2 167.3C214.3 176 171.7 193 128.8 196.2C86 199.3 43 188.7 21.5 183.3L0 178V0H21.5C43 0 86 0 128.8 0C171.7 0 214.3 0 257.2 0C300 0 343 0 385.8 0C428.7 0 471.3 0 514.2 0C557 0 600 0 642.8 0C685.7 0 728.3 0 771.2 0C814 0 857 0 878.5 0H900V220Z" fill="#7700E6"/>
<path d="M0 166L21.5 172C43 178 86 190 128.8 182.3C171.7 174.7 214.3 147.3 257.2 134C300 120.7 343 121.3 385.8 133.5C428.7 145.7 471.3 169.3 514.2 173.8C557 178.3 600 163.7 642.8 163.8C685.7 164 728.3 179 771.2 186C814 193 857 192 878.5 191.5L900 191V0H878.5C857 0 814 0 771.2 0C728.3 0 685.7 0 642.8 0C600 0 557 0 514.2 0C471.3 0 428.7 0 385.8 0C343 0 300 0 257.2 0C214.3 0 171.7 0 128.8 0C86 0 43 0 21.5 0H0V166Z" fill="#6C00C7"/>
<path d="M0 161L21.5 159.2C43 157.3 86 153.7 128.8 147.8C171.7 142 214.3 134 257.2 134.2C300 134.3 343 142.7 385.8 138.2C428.7 133.7 471.3 116.3 514.2 114.5C557 112.7 600 126.3 642.8 132.2C685.7 138 728.3 136 771.2 130.5C814 125 857 116 878.5 111.5L900 107V0H878.5C857 0 814 0 771.2 0C728.3 0 685.7 0 642.8 0C600 0 557 0 514.2 0C471.3 0 428.7 0 385.8 0C343 0 300 0 257.2 0C214.3 0 171.7 0 128.8 0C86 0 43 0 21.5 0H0V161Z" fill="#6000A9"/>
<path d="M0 82L21.5 82.5C43 83 86 84 128.8 81.8C171.7 79.7 214.3 74.3 257.2 78.8C300 83.3 343 97.7 385.8 105C428.7 112.3 471.3 112.7 514.2 112.2C557 111.7 600 110.3 642.8 107.8C685.7 105.3 728.3 101.7 771.2 100.5C814 99.3 857 100.7 878.5 101.3L900 102V0H878.5C857 0 814 0 771.2 0C728.3 0 685.7 0 642.8 0C600 0 557 0 514.2 0C471.3 0 428.7 0 385.8 0C343 0 300 0 257.2 0C214.3 0 171.7 0 128.8 0C86 0 43 0 21.5 0H0V82Z" fill="#53008D"/>
<path d="M0 71L21.5 68.7C43 66.3 86 61.7 128.8 55.2C171.7 48.7 214.3 40.3 257.2 39.7C300 39 343 46 385.8 48.7C428.7 51.3 471.3 49.7 514.2 52C557 54.3 600 60.7 642.8 57.7C685.7 54.7 728.3 42.3 771.2 41.7C814 41 857 52 878.5 57.5L900 63V0H878.5C857 0 814 0 771.2 0C728.3 0 685.7 0 642.8 0C600 0 557 0 514.2 0C471.3 0 428.7 0 385.8 0C343 0 300 0 257.2 0C214.3 0 171.7 0 128.8 0C86 0 43 0 21.5 0H0V71Z" fill="#460172"/>
</g>
<defs>
<clipPath id="clip0_27_174">
<rect width="900" height="231" fill="white"/>
</clipPath>
</defs>
</svg>
