<svg width="900" height="242" viewBox="0 0 900 242" fill="none" xmlns="http://www.w3.org/2000/svg">
<g clip-path="url(#clip0_27_154)">
<path d="M21.5 3.3L0 0V154H900V40L878.5 34.5C857 29 814 18 771.2 21.7C753.5 23.1853 735.851 27.19 718.211 31.1927C693.096 36.8914 668 42.586 642.8 41C621.502 39.6564 600.155 33.1377 578.807 26.6189C557.255 20.0374 535.702 13.456 514.2 12.2C479.751 10.1925 445.496 21.7903 411.124 33.4278C402.691 36.2829 394.251 39.1404 385.8 41.8C343 55.3 300 63.7 257.2 59.2C227.05 56.0374 197.047 46.503 166.985 36.9495C154.273 32.9096 141.55 28.8663 128.8 25.3C87.4712 13.7125 45.9558 7.16008 23.7922 3.66202L21.5 3.3Z" fill="#4C0000"/>
<path d="M0 102L21.5 100.7C43 99.3 86 96.7 128.8 92.7C171.7 88.7 214.3 83.3 257.2 79C300 74.7 343 71.3 385.8 76.2C428.7 81 471.3 94 514.2 102C557 110 600 113 642.8 111.5C685.7 110 728.3 104 771.2 93.2C814 82.3 857 66.7 878.5 58.8L900 51V243H878.5C857 243 814 243 771.2 243C728.3 243 685.7 243 642.8 243C600 243 557 243 514.2 243C471.3 243 428.7 243 385.8 243C343 243 300 243 257.2 243C214.3 243 171.7 243 128.8 243C86 243 43 243 21.5 243H0V102Z" fill="#6B0020"/>
<path d="M0 110H21.5C43 110 86 110 128.8 107.8C171.7 105.7 214.3 101.3 257.2 99.8C300 98.3 343 99.7 385.8 97C428.7 94.3 471.3 87.7 514.2 92.3C557 97 600 113 642.8 122.3C685.7 131.7 728.3 134.3 771.2 134.7C814 135 857 133 878.5 132L900 131V243H878.5C857 243 814 243 771.2 243C728.3 243 685.7 243 642.8 243C600 243 557 243 514.2 243C471.3 243 428.7 243 385.8 243C343 243 300 243 257.2 243C214.3 243 171.7 243 128.8 243C86 243 43 243 21.5 243H0V110Z" fill="#890041"/>
<path d="M0 138L21.5 138.8C43 139.7 86 141.3 128.8 145.5C171.7 149.7 214.3 156.3 257.2 153.3C300 150.3 343 137.7 385.8 133.8C428.7 130 471.3 135 514.2 140.8C557 146.7 600 153.3 642.8 156.3C685.7 159.3 728.3 158.7 771.2 155.3C814 152 857 146 878.5 143L900 140V243H878.5C857 243 814 243 771.2 243C728.3 243 685.7 243 642.8 243C600 243 557 243 514.2 243C471.3 243 428.7 243 385.8 243C343 243 300 243 257.2 243C214.3 243 171.7 243 128.8 243C86 243 43 243 21.5 243H0V138Z" fill="#A1006C"/>
<path d="M0 171L21.5 173.7C43 176.3 86 181.7 128.8 187.3C171.7 193 214.3 199 257.2 199.3C300 199.7 343 194.3 385.8 192C428.7 189.7 471.3 190.3 514.2 191.2C557 192 600 193 642.8 189.3C685.7 185.7 728.3 177.3 771.2 176.8C814 176.3 857 183.7 878.5 187.3L900 191V243H878.5C857 243 814 243 771.2 243C728.3 243 685.7 243 642.8 243C600 243 557 243 514.2 243C471.3 243 428.7 243 385.8 243C343 243 300 243 257.2 243C214.3 243 171.7 243 128.8 243C86 243 43 243 21.5 243H0V171Z" fill="#A812A4"/>
</g>
<defs>
<clipPath id="clip0_27_154">
<rect width="900" height="242" fill="white"/>
</clipPath>
</defs>
</svg>
